<svg width="240" height="114" viewBox="0 0 240 114" fill="none" xmlns="http://www.w3.org/2000/svg">
    <path d="M25.667 40.8727V8.88473C25.667 7.69945 25.7856 6.98855 27.8066 6.98855H55.016C59.7696 6.98855 62.3836 11.0174 64.2853 18.5993L65.8299 24.6426H70.4635C71.2943 7.46435 72.0066 0 72.0066 0C72.0066 0 60.3626 1.30283 53.4708 1.30283H18.658L0 0.710188V5.68642L6.29886 6.87101C10.6953 7.70085 11.7626 8.64753 12.1219 12.6771C12.1219 12.6771 12.4791 24.5243 12.4791 44.0738C12.4791 63.6205 12.1219 75.3509 12.1219 75.3509C12.1219 78.9047 10.6953 80.2075 6.29886 81.0394L0 82.2247V87.1982L18.658 86.6069H49.7894C56.7998 86.6069 73.0782 87.1982 73.0782 87.1982C73.4333 82.9321 75.8115 63.6205 76.168 61.4907H71.7716L67.1372 72.0351C63.4531 80.3265 58.1072 80.9198 52.1648 80.9198H34.4591C28.5175 80.9198 25.6656 78.5499 25.6656 73.4561V46.443C25.6656 46.443 38.6169 46.443 43.1313 46.7991C46.4589 47.037 48.4778 47.9844 49.5487 52.6045L50.9754 58.7653H56.0819L55.7269 43.2433L56.4391 27.6058H51.3311L49.6687 34.4768C48.5979 38.9786 47.8863 39.8099 43.2513 40.2822C38.024 40.8762 25.6649 40.7573 25.6649 40.7573V40.8748H25.667V40.8727ZM96.1284 12.2027C94.4645 19.5481 92.8007 25.2345 86.9783 29.0262C83.4142 31.3946 79.8486 32.2231 78.4248 32.342V36.8439H88.9993V73.2154C88.9993 83.4058 95.7733 88.3828 104.803 88.3828C111.814 88.3828 119.061 85.4209 121.557 79.2587L119.061 76.0597C117.872 78.0748 114.072 81.0359 109.318 81.0359C104.091 81.0359 101.239 77.4808 101.239 68.4785V36.3723L118.826 37.6765L119.776 29.6181L101.24 30.3297V12.3202L96.1284 12.2027ZM133.677 68.1477L129.162 68.2659C129.399 70.8716 129.519 74.1903 129.519 77.2703C129.519 80.4693 129.401 83.4312 129.162 84.8522C129.162 84.8522 138.193 88.1667 147.342 88.1667C159.7 88.1667 169.563 82.243 169.563 70.6323C169.563 50.7309 139.62 53.6934 139.62 40.3033C139.62 34.7358 144.61 32.6024 150.076 32.6024C154.353 32.6024 157.918 34.1425 158.631 36.3955L161.602 45.2809L165.999 45.0444C166.356 40.3047 166.593 34.8548 167.306 30.4719C163.503 28.8129 155.541 27.8634 150.554 27.8634C138.907 27.8634 129.522 32.9586 129.522 44.3328C129.522 64.1174 158.751 60.0893 158.751 74.664C158.751 79.8746 155.541 83.548 148.295 83.548C141.642 83.548 138.314 80.1132 137.009 76.6756L133.677 68.1477ZM205.294 81.8348C198.415 100.994 189.994 105.958 182.404 105.958C179.2 105.958 177.66 104.538 177.183 102.294L175.404 93.0676L170.422 93.3041C169.473 98.7449 168.525 104.778 167.222 109.744C170.187 111.988 175.166 113.173 179.082 113.173C187.267 113.173 199.72 112.107 211.104 85.145L230.201 40.2076C231.744 36.5405 232.335 36.1857 236.842 34.4106L239.333 33.4668V29.3274L228.065 29.9187L215.968 29.3274V33.4668L219.05 34.4106C222.132 35.3587 223.558 36.5405 223.558 38.6696C223.558 39.7332 223.201 40.7981 222.607 42.4522C220.828 46.9491 209.797 73.6743 206.835 79.3523L209.797 78.286C204.577 65.3963 196.634 43.8711 195.447 40.2083C195.21 39.4981 195.091 38.9069 195.091 38.3128C195.091 36.4215 196.395 34.8836 199.242 34.2931L203.157 33.4675V29.3274L186.906 29.9194L173.979 29.3274V33.4675L176.114 34.1763C179.079 35.1222 179.791 35.9507 181.57 40.0893C191.411 62.5598 196.04 74.8568 202.323 90.9419L205.294 81.8348Z" fill="#F27224"/>
    </svg>
    