<?xml version="1.0" encoding="UTF-8" standalone="no"?>
<!-- Created with Inkscape (http://www.inkscape.org/) -->

<svg
   xmlns:dc="http://purl.org/dc/elements/1.1/"
   xmlns:cc="http://creativecommons.org/ns#"
   xmlns:rdf="http://www.w3.org/1999/02/22-rdf-syntax-ns#"
   xmlns:svg="http://www.w3.org/2000/svg"
   xmlns="http://www.w3.org/2000/svg"
   xmlns:sodipodi="http://sodipodi.sourceforge.net/DTD/sodipodi-0.dtd"
   xmlns:inkscape="http://www.inkscape.org/namespaces/inkscape"
   width="173.83125mm"
   height="39.952084mm"
   viewBox="0 0 173.83125 39.952084"
   version="1.1"
   id="svg8"
   inkscape:version="0.92.5 (2060ec1f9f, 2020-04-08)"
   sodipodi:docname="ontrac 2023.svg">
  <defs
     id="defs2" />
  <sodipodi:namedview
     id="base"
     pagecolor="#ffffff"
     bordercolor="#666666"
     borderopacity="1.0"
     inkscape:pageopacity="0.0"
     inkscape:pageshadow="2"
     inkscape:zoom="0.7"
     inkscape:cx="536.79594"
     inkscape:cy="-141.59638"
     inkscape:document-units="mm"
     inkscape:current-layer="layer1"
     showgrid="false"
     fit-margin-top="0"
     fit-margin-left="0"
     fit-margin-right="0"
     fit-margin-bottom="0"
     inkscape:window-width="1920"
     inkscape:window-height="1017"
     inkscape:window-x="1912"
     inkscape:window-y="70"
     inkscape:window-maximized="1" />
  <metadata
     id="metadata5">
    <rdf:RDF>
      <cc:Work
         rdf:about="">
        <dc:format>image/svg+xml</dc:format>
        <dc:type
           rdf:resource="http://purl.org/dc/dcmitype/StillImage" />
        <dc:title></dc:title>
      </cc:Work>
    </rdf:RDF>
  </metadata>
  <g
     inkscape:label="Layer 1"
     inkscape:groupmode="layer"
     id="layer1"
     transform="translate(-30.256862,-141.57337)">
    <g
       style="fill:none"
       id="g847"
       transform="matrix(1.4857245,0,0,1.4730725,30.256862,141.57337)">
      <path
         id="path815"
         d="m 32.5585,7.64442 v 0.41706 c 0,0.45497 0,0.67088 0,1.13742 0,0.46654 0,0.59441 0,1.3649 h 0.038 c 0.4549,-1.01103 1.2132,-1.81987 2.2748,-2.42649 1.0869,-0.63191 2.4012,-0.94786 3.9431,-0.94786 1.2132,0 2.3001,0.20221 3.2606,0.60663 0.9605,0.37914 1.744,1.04896 2.3507,2.00945 0.6066,0.96047 0.9099,2.23697 0.9099,3.82937 V 26.6015 H 41.0892 V 14.3552 c 0,-1.2638 -0.3665,-2.1864 -1.0995,-2.7677 -0.7077,-0.6066 -1.6808,-0.9099 -2.9194,-0.9099 h -0.1137 c -0.8089,0 -1.5545,0.1642 -2.237,0.4928 -0.6824,0.3286 -1.2258,0.8089 -1.6303,1.4408 -0.4044,0.6066 -0.6066,1.3396 -0.6066,2.199 V 26.6015 H 28.2363 V 7.64442 Z"
         inkscape:connector-curvature="0"
         style="fill:#121212" />
      <path
         id="path817"
         d="m 12.7249,0 c 2.6206,0 4.89,0.562093 6.8082,1.68628 1.9182,1.12418 3.3906,2.70589 4.4172,4.74511 1.0266,2.03922 1.5399,4.39221 1.5399,7.05881 0,2.6928 -0.5133,5.0719 -1.5399,7.1373 -1.0266,2.0392 -2.499,3.6209 -4.4172,4.7451 -1.8912,1.1242 -4.1606,1.6863 -6.8082,1.6863 -2.6207,0 -4.89006,-0.5621 -6.80824,-1.6863 C 3.99847,24.2484 2.52606,22.6667 1.49943,20.6275 0.499809,18.5621 0,16.1961 0,13.5294 0,10.8366 0.513317,8.47061 1.53995,6.43139 2.56659,4.39217 4.02549,2.81046 5.91666,1.68628 7.83484,0.562093 10.1042,0 12.7249,0 Z m 0.2026,23.3726 c 1.648,0 3.0529,-0.4052 4.2146,-1.2157 1.1617,-0.8104 2.0398,-1.9477 2.6341,-3.4118 0.6214,-1.4902 0.9321,-3.2287 0.9321,-5.2157 0,-1.9869 -0.3107,-3.71238 -0.9321,-5.17644 C 19.1819,6.86276 18.3038,5.71243 17.1421,4.90197 15.9804,4.09151 14.589,3.68628 12.968,3.68628 h -0.3647 c -1.621,0 -3.02588,0.40523 -4.21462,1.21569 C 7.19995,5.71243 6.29489,6.86276 5.67351,8.35296 5.07914,9.81702 4.78195,11.5425 4.78195,13.5294 c 0,1.987 0.29719,3.7255 0.89156,5.2157 0.62138,1.4641 1.51293,2.6014 2.67465,3.4118 1.18873,0.8105 2.59364,1.2157 4.21464,1.2157 z"
         inkscape:connector-curvature="0"
         style="fill:#121212" />
      <path
         id="path819"
         d="m 82.0403,7.25464 c 2.6288,0 4.6003,0.50552 5.9146,1.51656 1.3397,0.98577 2.0095,2.6287 2.0095,4.9288 v 8.1895 c 0,0.5561 0.0505,0.9226 0.1517,1.0995 0.1263,0.1769 0.4296,0.2654 0.9099,0.2654 0.3033,0 0.6089,0 0.872,0 v 3.4032 c -0.982,0 -1.8325,0 -2.5402,0 -1.0616,0 -1.8325,-0.2148 -2.3128,-0.6445 -0.455,-0.455 -0.7042,-0.915 -0.6445,-1.6213 0,-0.1516 0,-0.278 0,-0.3791 0.0252,-0.1264 0.0505,-0.2654 0.0758,-0.4171 L 86.297,23.5774 c -0.6319,1.1627 -1.7922,1.9645 -3.0055,2.5964 -1.2132,0.6319 -2.5276,0.9478 -3.9431,0.9478 -0.8088,0 -1.5671,-0.1137 -2.2748,-0.3412 -0.7077,-0.2022 -1.3396,-0.5055 -1.8957,-0.9099 -0.6825,-0.5055 -1.2133,-1.1248 -1.5924,-1.8578 -0.3539,-0.733 -0.5308,-1.5545 -0.5308,-2.4644 0,-1.921 0.733,-3.3997 2.199,-4.436 0.5308,-0.3539 1.1501,-0.6445 1.8578,-0.872 0.733,-0.2275 1.6177,-0.4297 2.654,-0.6066 l 1.744,-0.2654 c 0.9858,-0.1517 1.7694,-0.316 2.3507,-0.4929 0.6066,-0.2022 1.0616,-0.455 1.3649,-0.7583 0.3286,-0.3286 0.4929,-0.7583 0.4929,-1.2891 0,-0.7583 -0.3286,-1.3523 -0.9858,-1.7819 -0.6571,-0.4297 -1.5544,-0.6446 -2.6919,-0.6446 -1.1879,0 -2.1484,0.316 -2.8814,0.9479 -0.733,0.6066 -1.1375,1.466 -1.2133,2.5781 h -4.2843 c 0.0506,-2.0726 0.8215,-3.7029 2.3128,-4.8909 1.5165,-1.18797 3.5386,-1.78196 6.0662,-1.78196 z m 3.7915,9.06146 c -0.3286,0.455 -0.8089,0.8468 -1.4408,1.1754 -0.6319,0.3033 -1.327,0.5308 -2.0853,0.6824 l -1.5924,0.3412 c -1.0868,0.2022 -1.9083,0.5308 -2.4644,0.9858 -0.5308,0.4297 -0.7962,1.0742 -0.7962,1.9336 0,0.7836 0.2907,1.3902 0.8721,1.8199 0.6066,0.4297 1.3649,0.6445 2.2748,0.6445 0.8594,0 1.6935,-0.1895 2.5023,-0.5687 0.8089,-0.3791 1.466,-0.9605 1.9716,-1.744 0.5055,-0.7836 0.7583,-1.7314 0.7583,-2.8436 z"
         inkscape:connector-curvature="0"
         style="fill:#121212" />
      <path
         id="path821"
         d="m 110.655,19.5388 c -0.278,2.2749 -1.201,4.1074 -2.768,5.4976 -1.567,1.3902 -3.615,2.0852 -6.142,2.0852 -1.896,0 -3.5389,-0.4044 -4.9291,-1.2132 -1.3902,-0.8341 -2.4644,-1.9968 -3.2227,-3.4881 -0.7583,-1.5166 -1.1374,-3.2859 -1.1374,-5.308 0,-1.9968 0.3791,-3.7282 1.1374,-5.1942 0.7583,-1.4913 1.8325,-2.64137 3.2227,-3.45021 1.4155,-0.80883 3.0584,-1.21325 4.9291,-1.21325 1.516,0 2.894,0.2654 4.132,0.7962 1.239,0.50552 2.263,1.30171 3.071,2.38856 0.835,1.0616 1.391,2.3886 1.669,3.981 h -4.436 c -0.228,-1.1374 -0.683,-2.06 -1.365,-2.7677 -0.683,-0.7078 -1.618,-1.0616 -2.806,-1.0616 h -0.303 c -1.062,0 -1.9591,0.2907 -2.6921,0.872 -0.733,0.5561 -1.2764,1.327 -1.6303,2.3128 -0.3539,0.9857 -0.5308,2.0979 -0.5308,3.3364 0,1.921 0.4044,3.5134 1.2133,4.7772 0.8341,1.2638 2.0469,1.8957 3.6399,1.8957 h 0.303 c 1.264,0 2.237,-0.3918 2.92,-1.1753 0.707,-0.8089 1.15,-1.8326 1.327,-3.0711 z"
         inkscape:connector-curvature="0"
         style="fill:#121212" />
      <path
         id="path823"
         d="m 54.7715,0 h 9.8039 v 4.18302 h -9.8039 z"
         inkscape:connector-curvature="0"
         style="fill:#cc2027" />
      <path
         id="path825"
         d="m 48.4941,0 h -7.1867 v 4.12592 h 7.1867 c 0.2518,-0.0025 0.5016,0.04443 0.7352,0.13818 0.2332,0.09374 0.4456,0.23247 0.6251,0.40823 0.1795,0.17605 0.3227,0.38559 0.4214,0.61676 0.0977,0.23134 0.149,0.47961 0.1511,0.7307 V 26.6667 h 4.3446 V 6.2702 C 54.7715,2.69107 52.0779,0 48.4941,0 Z"
         inkscape:connector-curvature="0"
         style="clip-rule:evenodd;fill:#121212;fill-rule:evenodd" />
      <path
         id="path827"
         d="m 71.7101,12.1837 c -0.0253,0 -0.0506,0 -0.0759,0 0,0 -0.0126,-0.0127 -0.0379,-0.038 -0.3033,-0.0505 -0.6066,-0.0884 -0.9099,-0.1137 -0.2781,-0.0253 -0.594,-0.0379 -0.9479,-0.0379 -1.3902,0 -2.5655,0.3791 -3.526,1.1374 -0.9605,0.7583 -1.4407,1.921 -1.4407,3.4881 V 26.6669 H 60.5254 V 7.70979 h 4.1705 v 0.75828 c 0,0.48025 0,0.82938 0,1.36491 0,0.53552 0,1.06782 0,1.59242 h 0.038 c 0.556,-1.4155 1.327,-2.38862 2.3127,-2.91941 1.0111,-0.55608 2.3128,-0.83411 3.9052,-0.83411 0.1264,0 0.2527,0 0.3791,0 0.1517,0 0.2907,0 0.4171,0 z"
         inkscape:connector-curvature="0"
         style="fill:#121212" />
      <path
         id="path829"
         d="m 112.42,22.6297 c -0.527,0.5054 -0.785,1.1183 -0.785,1.8495 0,0.7312 0.258,1.3441 0.785,1.8388 0.505,0.5053 1.14,0.7527 1.903,0.7527 0.753,0 1.387,-0.2474 1.903,-0.7527 0.516,-0.5054 0.775,-1.1184 0.775,-1.8388 0,-0.7312 -0.259,-1.3441 -0.775,-1.8495 -0.516,-0.4947 -1.15,-0.7527 -1.903,-0.7527 -0.763,0 -1.398,0.258 -1.903,0.7527 z m 1.903,3.9033 c -0.613,0 -1.118,-0.1935 -1.505,-0.5914 -0.409,-0.3979 -0.613,-0.8817 -0.613,-1.4624 0,-0.5807 0.204,-1.0753 0.613,-1.4839 0.387,-0.3871 0.892,-0.5914 1.505,-0.5914 0.602,0 1.097,0.2043 1.505,0.5914 0.398,0.4086 0.603,0.9032 0.603,1.4839 0,0.5807 -0.205,1.0645 -0.603,1.4624 -0.408,0.3979 -0.903,0.5914 -1.505,0.5914 z m 1.054,-1.5054 c -0.022,-0.2688 -0.129,-0.4516 -0.323,-0.5377 0.258,-0.1075 0.398,-0.3226 0.398,-0.6344 0,-0.2473 -0.097,-0.4409 -0.269,-0.5807 -0.172,-0.129 -0.408,-0.2043 -0.709,-0.2043 h -1.194 v 2.7421 h 0.538 V 24.748 h 0.666 c 0.129,0 0.215,0.0323 0.269,0.086 0.043,0.0538 0.075,0.1506 0.097,0.3011 l 0.021,0.2796 c 0,0.1828 0.043,0.3118 0.108,0.3979 h 0.559 c -0.086,-0.1076 -0.129,-0.2366 -0.129,-0.3979 z m -1.559,-1.4732 h 0.634 c 0.29,0 0.441,0.1291 0.441,0.3656 0,0.2473 -0.14,0.3656 -0.409,0.3656 h -0.666 z"
         inkscape:connector-curvature="0"
         style="fill:#121212" />
    </g>
  </g>
</svg>
